<mxfile host="app.diagrams.net" agent="Mozilla/5.0 (Windows NT 10.0; Win64; x64; rv:139.0) Gecko/20100101 Firefox/139.0" version="27.1.4">
  <diagram name="Page-1" id="11ruIS_7Hk8grrwClf2K">
    <mxGraphModel dx="1042" dy="563" grid="1" gridSize="10" guides="1" tooltips="1" connect="1" arrows="1" fold="1" page="1" pageScale="1" pageWidth="850" pageHeight="1100" math="0" shadow="0">
      <root>
        <mxCell id="0" />
        <mxCell id="1" parent="0" />
        <mxCell id="bft_JM75LS7BpSLMKnrS-1" value="Django backend" style="ellipse;shape=cloud;whiteSpace=wrap;html=1;" vertex="1" parent="1">
          <mxGeometry x="330" y="190" width="140" height="100" as="geometry" />
        </mxCell>
        <mxCell id="bft_JM75LS7BpSLMKnrS-2" value="SQL Database" style="ellipse;shape=cloud;whiteSpace=wrap;html=1;" vertex="1" parent="1">
          <mxGeometry x="320" y="45" width="160" height="110" as="geometry" />
        </mxCell>
        <mxCell id="bft_JM75LS7BpSLMKnrS-3" value="" style="image;aspect=fixed;perimeter=ellipsePerimeter;html=1;align=center;shadow=0;dashed=0;spacingTop=3;image=img/lib/active_directory/database.svg;" vertex="1" parent="1">
          <mxGeometry x="375" y="110" width="50" height="37" as="geometry" />
        </mxCell>
        <mxCell id="bft_JM75LS7BpSLMKnrS-4" value="" style="shape=image;html=1;verticalAlign=top;verticalLabelPosition=bottom;labelBackgroundColor=#ffffff;imageAspect=0;aspect=fixed;image=https://cdn2.iconfinder.com/data/icons/boxicons-logos/24/bxl-django-128.png" vertex="1" parent="1">
          <mxGeometry x="387" y="250" width="38" height="38" as="geometry" />
        </mxCell>
        <mxCell id="bft_JM75LS7BpSLMKnrS-5" style="edgeStyle=orthogonalEdgeStyle;rounded=0;orthogonalLoop=1;jettySize=auto;html=1;entryX=0.501;entryY=0.965;entryDx=0;entryDy=0;entryPerimeter=0;" edge="1" parent="1" target="bft_JM75LS7BpSLMKnrS-2">
          <mxGeometry relative="1" as="geometry">
            <mxPoint x="400" y="200" as="sourcePoint" />
            <Array as="points">
              <mxPoint x="400" y="200" />
              <mxPoint x="400" y="198" />
            </Array>
          </mxGeometry>
        </mxCell>
        <mxCell id="bft_JM75LS7BpSLMKnrS-17" value="Stores data" style="edgeLabel;html=1;align=center;verticalAlign=middle;resizable=0;points=[];" vertex="1" connectable="0" parent="bft_JM75LS7BpSLMKnrS-5">
          <mxGeometry x="-0.0516" y="1" relative="1" as="geometry">
            <mxPoint x="-29" as="offset" />
          </mxGeometry>
        </mxCell>
        <mxCell id="bft_JM75LS7BpSLMKnrS-6" value="Order monitoring" style="html=1;verticalLabelPosition=bottom;align=center;labelBackgroundColor=#ffffff;verticalAlign=top;strokeWidth=2;strokeColor=#0080F0;shadow=0;dashed=0;shape=mxgraph.ios7.icons.monitor;" vertex="1" parent="1">
          <mxGeometry x="180" y="330" width="120" height="70" as="geometry" />
        </mxCell>
        <mxCell id="bft_JM75LS7BpSLMKnrS-7" value="" style="shape=image;html=1;verticalAlign=top;verticalLabelPosition=bottom;labelBackgroundColor=#ffffff;imageAspect=0;aspect=fixed;image=https://cdn3.iconfinder.com/data/icons/halloween-36/64/_Butcher_Knife-128.png" vertex="1" parent="1">
          <mxGeometry x="180" y="330" width="35" height="35" as="geometry" />
        </mxCell>
        <mxCell id="bft_JM75LS7BpSLMKnrS-8" value="Kitchen staff" style="shape=umlActor;verticalLabelPosition=bottom;verticalAlign=top;html=1;outlineConnect=0;" vertex="1" parent="1">
          <mxGeometry x="110" y="450" width="30" height="60" as="geometry" />
        </mxCell>
        <mxCell id="bft_JM75LS7BpSLMKnrS-9" style="rounded=0;orthogonalLoop=1;jettySize=auto;html=1;" edge="1" parent="1" source="bft_JM75LS7BpSLMKnrS-8">
          <mxGeometry relative="1" as="geometry">
            <mxPoint x="180" y="390" as="targetPoint" />
          </mxGeometry>
        </mxCell>
        <mxCell id="bft_JM75LS7BpSLMKnrS-16" value="Views orders" style="edgeLabel;html=1;align=center;verticalAlign=middle;resizable=0;points=[];" vertex="1" connectable="0" parent="bft_JM75LS7BpSLMKnrS-9">
          <mxGeometry x="-0.0425" relative="1" as="geometry">
            <mxPoint x="-34" y="-4" as="offset" />
          </mxGeometry>
        </mxCell>
        <mxCell id="bft_JM75LS7BpSLMKnrS-10" style="rounded=0;orthogonalLoop=1;jettySize=auto;html=1;entryX=0.13;entryY=0.77;entryDx=0;entryDy=0;entryPerimeter=0;exitX=0.996;exitY=-0.024;exitDx=0;exitDy=0;exitPerimeter=0;" edge="1" parent="1" source="bft_JM75LS7BpSLMKnrS-6" target="bft_JM75LS7BpSLMKnrS-1">
          <mxGeometry relative="1" as="geometry" />
        </mxCell>
        <mxCell id="bft_JM75LS7BpSLMKnrS-21" style="rounded=0;orthogonalLoop=1;jettySize=auto;html=1;" edge="1" parent="1" source="bft_JM75LS7BpSLMKnrS-13" target="bft_JM75LS7BpSLMKnrS-20">
          <mxGeometry relative="1" as="geometry" />
        </mxCell>
        <mxCell id="bft_JM75LS7BpSLMKnrS-22" value="Gets Table information" style="edgeLabel;html=1;align=center;verticalAlign=middle;resizable=0;points=[];" vertex="1" connectable="0" parent="bft_JM75LS7BpSLMKnrS-21">
          <mxGeometry x="0.2433" y="2" relative="1" as="geometry">
            <mxPoint x="-25" y="-29" as="offset" />
          </mxGeometry>
        </mxCell>
        <mxCell id="bft_JM75LS7BpSLMKnrS-13" value="Android app" style="verticalLabelPosition=bottom;html=1;verticalAlign=top;align=center;strokeColor=none;fillColor=#00BEF2;shape=mxgraph.azure.mobile;pointerEvents=1;" vertex="1" parent="1">
          <mxGeometry x="490" y="340" width="35" height="50" as="geometry" />
        </mxCell>
        <mxCell id="bft_JM75LS7BpSLMKnrS-14" value="Customer" style="shape=umlActor;verticalLabelPosition=bottom;verticalAlign=top;html=1;outlineConnect=0;" vertex="1" parent="1">
          <mxGeometry x="410" y="450" width="30" height="60" as="geometry" />
        </mxCell>
        <mxCell id="bft_JM75LS7BpSLMKnrS-15" value="Gets orders from" style="text;html=1;align=center;verticalAlign=middle;resizable=0;points=[];autosize=1;strokeColor=none;fillColor=none;" vertex="1" parent="1">
          <mxGeometry x="220" y="280" width="110" height="30" as="geometry" />
        </mxCell>
        <mxCell id="bft_JM75LS7BpSLMKnrS-18" style="rounded=0;orthogonalLoop=1;jettySize=auto;html=1;entryX=0.8;entryY=0.8;entryDx=0;entryDy=0;entryPerimeter=0;" edge="1" parent="1" source="bft_JM75LS7BpSLMKnrS-13" target="bft_JM75LS7BpSLMKnrS-1">
          <mxGeometry relative="1" as="geometry" />
        </mxCell>
        <mxCell id="bft_JM75LS7BpSLMKnrS-28" value="Sends order" style="edgeLabel;html=1;align=center;verticalAlign=middle;resizable=0;points=[];" vertex="1" connectable="0" parent="bft_JM75LS7BpSLMKnrS-18">
          <mxGeometry x="-0.0259" y="-1" relative="1" as="geometry">
            <mxPoint x="-37" y="15" as="offset" />
          </mxGeometry>
        </mxCell>
        <mxCell id="bft_JM75LS7BpSLMKnrS-19" style="rounded=0;orthogonalLoop=1;jettySize=auto;html=1;entryX=0;entryY=0.5;entryDx=0;entryDy=0;entryPerimeter=0;" edge="1" parent="1" source="bft_JM75LS7BpSLMKnrS-14" target="bft_JM75LS7BpSLMKnrS-13">
          <mxGeometry relative="1" as="geometry" />
        </mxCell>
        <mxCell id="bft_JM75LS7BpSLMKnrS-27" value="Creates order" style="edgeLabel;html=1;align=center;verticalAlign=middle;resizable=0;points=[];" vertex="1" connectable="0" parent="bft_JM75LS7BpSLMKnrS-19">
          <mxGeometry x="-0.1407" y="2" relative="1" as="geometry">
            <mxPoint x="-35" y="-15" as="offset" />
          </mxGeometry>
        </mxCell>
        <mxCell id="bft_JM75LS7BpSLMKnrS-20" value="ESP32 BLE beacon" style="sketch=0;pointerEvents=1;shadow=0;dashed=0;html=1;strokeColor=none;fillColor=#434445;aspect=fixed;labelPosition=center;verticalLabelPosition=bottom;verticalAlign=top;align=center;outlineConnect=0;shape=mxgraph.vvd.cpu;" vertex="1" parent="1">
          <mxGeometry x="640" y="244" width="50" height="50" as="geometry" />
        </mxCell>
        <mxCell id="bft_JM75LS7BpSLMKnrS-23" value="Location" style="html=1;dashed=0;aspect=fixed;verticalLabelPosition=bottom;verticalAlign=top;align=center;shape=mxgraph.gmdl.gps;strokeColor=#737373;fillColor=#737373;shadow=0;strokeWidth=2;sketch=0;" vertex="1" parent="1">
          <mxGeometry x="660" y="345" width="55" height="55" as="geometry" />
        </mxCell>
        <mxCell id="bft_JM75LS7BpSLMKnrS-24" style="rounded=0;orthogonalLoop=1;jettySize=auto;html=1;entryX=0.152;entryY=0.548;entryDx=0;entryDy=0;entryPerimeter=0;" edge="1" parent="1" source="bft_JM75LS7BpSLMKnrS-13" target="bft_JM75LS7BpSLMKnrS-23">
          <mxGeometry relative="1" as="geometry" />
        </mxCell>
        <mxCell id="bft_JM75LS7BpSLMKnrS-25" value="Gets GPS location" style="edgeLabel;html=1;align=center;verticalAlign=middle;resizable=0;points=[];" vertex="1" connectable="0" parent="bft_JM75LS7BpSLMKnrS-24">
          <mxGeometry x="-0.2185" y="1" relative="1" as="geometry">
            <mxPoint x="24" y="-9" as="offset" />
          </mxGeometry>
        </mxCell>
      </root>
    </mxGraphModel>
  </diagram>
</mxfile>
